<?xml version="1.0" encoding="utf-8"?>
<!-- Generator: Adobe Illustrator 17.0.0, SVG Export Plug-In . SVG Version: 6.00 Build 0)  -->
<!DOCTYPE svg PUBLIC "-//W3C//DTD SVG 1.1//EN" "http://www.w3.org/Graphics/SVG/1.1/DTD/svg11.dtd">
<svg version="1.1" id="Layer_1" xmlns="http://www.w3.org/2000/svg" xmlns:xlink="http://www.w3.org/1999/xlink" x="0px" y="0px"
	 width="100px" height="100px" viewBox="0 0 100 100" enable-background="new 0 0 100 100" xml:space="preserve">
<g>
	<path fill="#FFFFFF" d="M11.95,16.303c-0.895,0-1.791,0.011-2.686-0.002c-2.126-0.032-3.342-1.063-3.558-3.001
		C5.54,11.794,6.8,9.974,8.599,9.861c4.29-0.271,8.677-0.71,12.62,1.664c1.864,1.122,3.216,2.759,4.096,4.77
		c0.475,1.085,1.078,2.122,1.457,3.237c0.519,1.529,1.589,1.772,3.02,1.769c17.108-0.03,34.216,0.04,51.324-0.054
		c5.433-0.03,9.133,2.317,11.085,7.268c0.948,2.405,0.746,4.994-0.046,7.467c-1.054,3.286-2.132,6.566-3.276,9.822
		c-1.404,3.994-2.654,8.067-4.41,11.905c-1.421,3.107-4.365,4.558-7.707,5.178c-2.426,0.45-4.823,1.057-7.238,1.57
		c-1.642,0.349-3.293,0.658-4.94,0.984c-4.459,0.883-8.906,1.842-13.382,2.628c-4.824,0.847-9.335,0.262-12.312-4.163
		c-1.333-1.981-2.18-4.303-3.153-6.512c-1.712-3.884-3.353-7.8-5.02-11.704c-1.629-3.816-3.243-7.638-4.88-11.451
		c-1.656-3.859-3.332-7.709-4.998-11.564c-0.411-0.952-0.849-1.895-1.217-2.863c-0.861-2.264-2.548-3.473-4.984-3.504
		c-0.895-0.011-1.79-0.002-2.686-0.002C11.95,16.306,11.95,16.305,11.95,16.303z M57.321,27.897c-5.124,0-10.248-0.001-15.372,0
		c-3.184,0.001-6.368-0.017-9.551,0.016c-1.415,0.014-1.882,0.582-1.428,1.684c0.883,2.143,1.808,4.27,2.73,6.397
		c1.669,3.849,3.365,7.686,5.022,11.54c1.599,3.719,3.136,7.464,4.754,11.175c0.984,2.257,2.679,3.401,5.219,2.945
		c1.506-0.27,3.001-0.602,4.506-0.881c3.843-0.712,7.697-1.363,11.529-2.127c3.634-0.724,7.225-1.676,10.875-2.297
		c1.927-0.328,3.129-1.386,3.76-2.986c1.087-2.753,1.916-5.608,2.855-8.42c1.095-3.279,2.128-6.58,3.304-9.83
		c1.378-3.812,0.15-7.38-4.625-7.267C73.044,28.034,65.181,27.898,57.321,27.897z"/>
	<path fill="#FFFFFF" d="M70.367,85.199c-0.005-4.218,2.617-6.736,6.825-6.904c4.395-0.175,7.267,3.649,7.233,6.846
		c-0.041,3.93-3.261,7.228-7.16,7.217C74.174,92.35,70.076,89.783,70.367,85.199z"/>
	<path fill="#FFFFFF" d="M39.38,78.326c4.272-0.175,6.869,2.957,7.019,6.848c0.148,3.848-3.187,7.251-7.018,7.164
		c-4.109-0.093-7.045-3.188-7.15-7.104C32.141,81.911,34.814,78.067,39.38,78.326z"/>
</g>
</svg>
