<?xml version="1.0" encoding="utf-8"?>
<!-- Generator: Adobe Illustrator 17.0.0, SVG Export Plug-In . SVG Version: 6.00 Build 0)  -->
<!DOCTYPE svg PUBLIC "-//W3C//DTD SVG 1.1//EN" "http://www.w3.org/Graphics/SVG/1.1/DTD/svg11.dtd">
<svg version="1.1" id="Layer_1" xmlns="http://www.w3.org/2000/svg" xmlns:xlink="http://www.w3.org/1999/xlink" x="0px" y="0px"
	 width="56px" height="56px" viewBox="0 0 56 56" enable-background="new 0 0 56 56" xml:space="preserve">
<title>Icons 56/services_outline_56</title>
<desc>Created with Sketch.</desc>
<g id="services_outline_56">
	<rect fill="none" width="56" height="56"/>
	<path id="_x21B3_-Icon-Color" fill="#FFFFFF" d="M13.91,30l4.528,0.002c2.03,0.022,3.101,0.249,4.212,0.843
		c1.076,0.576,1.93,1.429,2.505,2.505C25.782,34.524,26,35.651,26,37.91l0,0v4.181c0,2.258-0.218,3.386-0.845,4.559
		c-0.576,1.076-1.429,1.93-2.505,2.505C21.476,49.782,20.349,50,18.09,50l0,0H13.91c-2.258,0-3.386-0.218-4.559-0.845
		c-1.076-0.576-1.93-1.429-2.505-2.505C6.218,45.476,6,44.349,6,42.09l0,0l0.002-4.528c0.022-2.03,0.249-3.101,0.843-4.212
		c0.576-1.076,1.429-1.93,2.505-2.505C10.524,30.218,11.651,30,13.91,30L13.91,30z M37.91,30l4.528,0.002
		c2.03,0.022,3.101,0.249,4.212,0.843c1.076,0.576,1.93,1.429,2.505,2.505C49.782,34.524,50,35.651,50,37.91l0,0v4.181
		c0,2.258-0.218,3.386-0.845,4.559c-0.576,1.076-1.429,1.93-2.505,2.505C45.476,49.782,44.349,50,42.09,50l0,0H37.91
		c-2.258,0-3.386-0.218-4.559-0.845c-1.076-0.576-1.93-1.429-2.505-2.505C30.218,45.476,30,44.349,30,42.09l0,0l0.002-4.528
		c0.022-2.03,0.249-3.101,0.843-4.212c0.576-1.076,1.429-1.93,2.505-2.505C34.524,30.218,35.651,30,37.91,30L37.91,30z M18.09,33
		l-4.456,0.001c-1.599,0.013-2.225,0.145-2.869,0.489c-0.553,0.296-0.979,0.721-1.275,1.275C9.127,35.444,9,36.104,9,37.91l0,0
		l0.001,4.456c0.013,1.599,0.145,2.225,0.489,2.869c0.296,0.553,0.721,0.979,1.275,1.275c0.608,0.325,1.2,0.461,2.611,0.486l0,0
		L13.91,47h4.181c1.806,0,2.465-0.127,3.144-0.491c0.553-0.296,0.979-0.721,1.275-1.275c0.325-0.608,0.461-1.2,0.486-2.611l0,0
		L23,42.09V37.91c0-1.806-0.127-2.465-0.491-3.144c-0.296-0.553-0.721-0.979-1.275-1.275C20.556,33.127,19.896,33,18.09,33L18.09,33
		z M42.09,33l-4.456,0.001c-1.599,0.013-2.225,0.145-2.869,0.489c-0.553,0.296-0.979,0.721-1.275,1.275
		C33.127,35.444,33,36.104,33,37.91l0,0l0.001,4.456c0.013,1.599,0.145,2.225,0.489,2.869c0.296,0.553,0.721,0.979,1.275,1.275
		c0.608,0.325,1.2,0.461,2.611,0.486l0,0L37.91,47h4.181c1.806,0,2.465-0.127,3.144-0.491c0.553-0.296,0.979-0.721,1.275-1.275
		c0.325-0.608,0.461-1.2,0.486-2.611l0,0L47,42.09V37.91c0-1.806-0.127-2.465-0.491-3.144c-0.296-0.553-0.721-0.979-1.275-1.275
		C44.556,33.127,43.896,33,42.09,33L42.09,33z M38.228,4.825c1.168-0.354,2.375-0.354,3.543,0c1.273,0.386,2.224,1.029,3.821,2.626
		l0,0l3.2,3.203c1.42,1.451,2.016,2.368,2.382,3.575c0.354,1.168,0.354,2.375,0,3.543c-0.386,1.273-1.029,2.224-2.626,3.821l0,0
		l-2.956,2.956c-1.597,1.597-2.548,2.24-3.821,2.626c-1.168,0.354-2.375,0.354-3.543,0c-1.273-0.386-2.224-1.029-3.821-2.626l0,0
		l-2.956-2.956c-1.597-1.597-2.24-2.548-2.626-3.821c-0.354-1.168-0.354-2.375,0-3.543c0.386-1.273,1.029-2.224,2.626-3.821l0,0
		l3.203-3.2C36.105,5.787,37.022,5.19,38.228,4.825z M13.91,6l4.528,0.002c2.03,0.022,3.101,0.249,4.212,0.843
		c1.076,0.576,1.93,1.429,2.505,2.505C25.782,10.524,26,11.651,26,13.91l0,0v4.181c0,2.258-0.218,3.386-0.845,4.559
		c-0.576,1.076-1.429,1.93-2.505,2.505C21.476,25.782,20.349,26,18.09,26l0,0H13.91c-2.258,0-3.386-0.218-4.559-0.845
		c-1.076-0.576-1.93-1.429-2.505-2.505C6.218,21.476,6,20.349,6,18.09l0,0l0.002-4.528c0.022-2.03,0.249-3.101,0.843-4.212
		c0.576-1.076,1.429-1.93,2.505-2.505C10.524,6.218,11.651,6,13.91,6L13.91,6z M40.901,7.696c-0.601-0.182-1.202-0.182-1.803,0
		c-0.737,0.223-1.294,0.6-2.57,1.877l0,0l-3.15,3.152c-1.122,1.14-1.471,1.676-1.682,2.375c-0.182,0.601-0.182,1.202,0,1.803
		c0.2,0.659,0.522,1.174,1.502,2.19l0,0l0.374,0.38l2.956,2.956c1.277,1.277,1.833,1.653,2.57,1.877
		c0.601,0.182,1.202,0.182,1.803,0c0.659-0.2,1.174-0.522,2.19-1.502l0,0l0.38-0.374l2.956-2.956
		c1.277-1.277,1.653-1.833,1.877-2.57c0.182-0.601,0.182-1.202,0-1.803c-0.223-0.737-0.6-1.294-1.877-2.57l0,0l-3.152-3.15
		C42.136,8.256,41.599,7.907,40.901,7.696z M18.09,9l-4.456,0.001c-1.599,0.013-2.225,0.145-2.869,0.489
		c-0.553,0.296-0.979,0.721-1.275,1.275C9.127,11.444,9,12.104,9,13.91l0,0l0.001,4.456c0.013,1.599,0.145,2.225,0.489,2.869
		c0.296,0.553,0.721,0.979,1.275,1.275c0.608,0.325,1.2,0.461,2.611,0.486l0,0L13.91,23h4.181c1.806,0,2.465-0.127,3.144-0.491
		c0.553-0.296,0.979-0.721,1.275-1.275c0.325-0.608,0.461-1.2,0.486-2.611l0,0L23,18.09V13.91c0-1.806-0.127-2.465-0.491-3.144
		c-0.296-0.553-0.721-0.979-1.275-1.275C20.556,9.127,19.896,9,18.09,9L18.09,9z"/>
</g>
</svg>
