<?xml version="1.0" encoding="utf-8"?>
<!-- Generator: Adobe Illustrator 17.0.0, SVG Export Plug-In . SVG Version: 6.00 Build 0)  -->
<!DOCTYPE svg PUBLIC "-//W3C//DTD SVG 1.1//EN" "http://www.w3.org/Graphics/SVG/1.1/DTD/svg11.dtd">
<svg version="1.1" id="Layer_1" xmlns="http://www.w3.org/2000/svg" xmlns:xlink="http://www.w3.org/1999/xlink" x="0px" y="0px"
	 width="100px" height="100px" viewBox="0 0 100 100" enable-background="new 0 0 100 100" xml:space="preserve">
<g>
	<path fill="#FFFFFF" d="M22.944,29.006C22.961,14.055,35.131,1.956,50.11,2c14.878,0.044,26.953,12.189,26.936,27.091
		c-0.017,14.947-12.198,27.057-27.168,27.011C35.004,56.056,22.927,43.907,22.944,29.006z M49.956,49.045
		c11.053,0.015,20.018-8.917,20.033-19.958c0.015-11.056-8.914-20.017-19.957-20.03c-11.058-0.013-20.018,8.912-20.031,19.954
		C29.988,40.067,38.915,49.031,49.956,49.045z"/>
	<path fill="#FFFFFF" d="M51.993,65.47c17.967,0.768,33.479,9.295,44.15,26.313c0.359,0.573,0.708,1.197,0.865,1.845
		c0.421,1.74-0.509,3.472-2.083,4.078c-1.65,0.635-3.408,0.038-4.417-1.647c-2.278-3.804-4.951-7.283-8.14-10.372
		c-21.574-20.9-57.111-16.118-72.381,9.747c-1.398,2.368-3.101,3.104-5.034,2.176c-2.022-0.971-2.657-3.132-1.463-5.216
		c3.781-6.602,8.778-12.129,14.94-16.575C27.849,69.024,38.394,65.614,51.993,65.47z"/>
</g>
</svg>
